<svg width="370" height="158" viewBox="0 0 370 158" fill="none" xmlns="http://www.w3.org/2000/svg">
<path d="M148.797 52V37.7227H151.824V49.5H157.615V52H148.797ZM162.244 46.5215C162.244 47.6022 162.42 48.4193 162.771 48.9727C163.13 49.526 163.709 49.8027 164.51 49.8027C165.304 49.8027 165.874 49.5293 166.219 48.9824C166.57 48.429 166.746 47.6087 166.746 46.5215C166.746 45.4408 166.57 44.6302 166.219 44.0898C165.867 43.5495 165.291 43.2793 164.49 43.2793C163.696 43.2793 163.123 43.5495 162.771 44.0898C162.42 44.6237 162.244 45.4342 162.244 46.5215ZM169.793 46.5215C169.793 48.2988 169.324 49.6888 168.387 50.6914C167.449 51.694 166.144 52.1953 164.471 52.1953C163.423 52.1953 162.498 51.9674 161.697 51.5117C160.896 51.0495 160.281 50.3887 159.852 49.5293C159.422 48.6699 159.207 47.6673 159.207 46.5215C159.207 44.7376 159.673 43.3509 160.604 42.3613C161.535 41.3717 162.843 40.877 164.529 40.877C165.577 40.877 166.502 41.1048 167.303 41.5605C168.104 42.0163 168.719 42.6706 169.148 43.5234C169.578 44.3763 169.793 45.3757 169.793 46.5215ZM178.348 40.877C178.751 40.877 179.087 40.9062 179.354 40.9648L179.129 43.7578C178.888 43.6927 178.595 43.6602 178.25 43.6602C177.299 43.6602 176.557 43.9043 176.023 44.3926C175.496 44.8809 175.232 45.5645 175.232 46.4434V52H172.254V41.082H174.51L174.949 42.918H175.096C175.434 42.306 175.89 41.8145 176.463 41.4434C177.042 41.0658 177.671 40.877 178.348 40.877ZM185.857 42.9961C185.226 42.9961 184.731 43.1979 184.373 43.6016C184.015 43.9987 183.81 44.5651 183.758 45.3008H187.938C187.924 44.5651 187.732 43.9987 187.361 43.6016C186.99 43.1979 186.489 42.9961 185.857 42.9961ZM186.277 52.1953C184.52 52.1953 183.146 51.7103 182.156 50.7402C181.167 49.7702 180.672 48.3965 180.672 46.6191C180.672 44.7897 181.128 43.377 182.039 42.3809C182.957 41.3783 184.223 40.877 185.838 40.877C187.381 40.877 188.582 41.3164 189.441 42.1953C190.301 43.0742 190.73 44.2884 190.73 45.8379V47.2832H183.689C183.722 48.1296 183.973 48.7904 184.441 49.2656C184.91 49.7409 185.568 49.9785 186.414 49.9785C187.072 49.9785 187.693 49.9102 188.279 49.7734C188.865 49.6367 189.477 49.4186 190.115 49.1191V51.4238C189.594 51.6842 189.038 51.8763 188.445 52C187.853 52.1302 187.13 52.1953 186.277 52.1953ZM202.928 52H199.949V45.623C199.949 44.8353 199.816 44.2461 199.549 43.8555C199.288 43.4583 198.875 43.2598 198.309 43.2598C197.547 43.2598 196.993 43.5397 196.648 44.0996C196.303 44.6595 196.131 45.5807 196.131 46.8633V52H193.152V41.082H195.428L195.828 42.4785H195.994C196.287 41.9772 196.71 41.5866 197.264 41.3066C197.817 41.0202 198.452 40.877 199.168 40.877C200.802 40.877 201.909 41.4108 202.488 42.4785H202.752C203.045 41.9707 203.475 41.5768 204.041 41.2969C204.614 41.0169 205.258 40.877 205.975 40.877C207.212 40.877 208.146 41.196 208.777 41.834C209.415 42.4655 209.734 43.4811 209.734 44.8809V52H206.746V45.623C206.746 44.8353 206.613 44.2461 206.346 43.8555C206.085 43.4583 205.672 43.2598 205.105 43.2598C204.376 43.2598 203.829 43.5202 203.465 44.041C203.107 44.5618 202.928 45.3887 202.928 46.5215V52ZM218.23 52V37.7227H221.258V52H218.23ZM230.613 52.1953C229.331 52.1953 228.325 51.7298 227.596 50.7988H227.439C227.544 51.7103 227.596 52.2376 227.596 52.3809V56.8047H224.617V41.082H227.039L227.459 42.498H227.596C228.292 41.4173 229.324 40.877 230.691 40.877C231.98 40.877 232.99 41.375 233.719 42.3711C234.448 43.3672 234.812 44.7507 234.812 46.5215C234.812 47.6868 234.64 48.6992 234.295 49.5586C233.956 50.418 233.471 51.0723 232.84 51.5215C232.208 51.9707 231.466 52.1953 230.613 52.1953ZM229.734 43.2598C228.999 43.2598 228.462 43.4876 228.123 43.9434C227.785 44.3926 227.609 45.138 227.596 46.1797V46.502C227.596 47.6738 227.768 48.5137 228.113 49.0215C228.465 49.5293 229.018 49.7832 229.773 49.7832C231.108 49.7832 231.775 48.6829 231.775 46.4824C231.775 45.4082 231.609 44.6042 231.277 44.0703C230.952 43.5299 230.438 43.2598 229.734 43.2598ZM244.891 48.7578C244.891 49.8776 244.5 50.7305 243.719 51.3164C242.944 51.9023 241.782 52.1953 240.232 52.1953C239.438 52.1953 238.761 52.14 238.201 52.0293C237.641 51.9251 237.117 51.7689 236.629 51.5605V49.0996C237.182 49.36 237.804 49.5781 238.494 49.7539C239.191 49.9297 239.803 50.0176 240.33 50.0176C241.411 50.0176 241.951 49.7051 241.951 49.0801C241.951 48.8457 241.88 48.6569 241.736 48.5137C241.593 48.3639 241.346 48.1979 240.994 48.0156C240.643 47.8268 240.174 47.6087 239.588 47.3613C238.748 47.0098 238.13 46.6842 237.732 46.3848C237.342 46.0853 237.055 45.7435 236.873 45.3594C236.697 44.9688 236.609 44.4902 236.609 43.9238C236.609 42.9538 236.984 42.2051 237.732 41.6777C238.488 41.1439 239.555 40.877 240.936 40.877C242.251 40.877 243.53 41.1634 244.773 41.7363L243.875 43.8848C243.328 43.6504 242.817 43.4583 242.342 43.3086C241.867 43.1589 241.382 43.084 240.887 43.084C240.008 43.084 239.568 43.3216 239.568 43.7969C239.568 44.0638 239.708 44.2949 239.988 44.4902C240.275 44.6855 240.896 44.9753 241.854 45.3594C242.706 45.7044 243.331 46.0267 243.729 46.3262C244.126 46.6257 244.419 46.9707 244.607 47.3613C244.796 47.752 244.891 48.2174 244.891 48.7578ZM254.949 52L254.549 50.6035H254.393C254.074 51.1113 253.621 51.5052 253.035 51.7852C252.449 52.0586 251.782 52.1953 251.033 52.1953C249.751 52.1953 248.784 51.8535 248.133 51.1699C247.482 50.4798 247.156 49.4902 247.156 48.2012V41.082H250.135V47.459C250.135 48.2467 250.275 48.8392 250.555 49.2363C250.835 49.627 251.281 49.8223 251.893 49.8223C252.726 49.8223 253.328 49.5456 253.699 48.9922C254.07 48.4323 254.256 47.5078 254.256 46.2188V41.082H257.234V52H254.949ZM270.135 52H267.156V45.623C267.156 44.8353 267.023 44.2461 266.756 43.8555C266.495 43.4583 266.082 43.2598 265.516 43.2598C264.754 43.2598 264.201 43.5397 263.855 44.0996C263.51 44.6595 263.338 45.5807 263.338 46.8633V52H260.359V41.082H262.635L263.035 42.4785H263.201C263.494 41.9772 263.917 41.5866 264.471 41.3066C265.024 41.0202 265.659 40.877 266.375 40.877C268.009 40.877 269.116 41.4108 269.695 42.4785H269.959C270.252 41.9707 270.682 41.5768 271.248 41.2969C271.821 41.0169 272.465 40.877 273.182 40.877C274.419 40.877 275.353 41.196 275.984 41.834C276.622 42.4655 276.941 43.4811 276.941 44.8809V52H273.953V45.623C273.953 44.8353 273.82 44.2461 273.553 43.8555C273.292 43.4583 272.879 43.2598 272.312 43.2598C271.583 43.2598 271.036 43.5202 270.672 44.041C270.314 44.5618 270.135 45.3887 270.135 46.5215V52ZM297.283 44.7246C297.283 47.0749 296.613 48.875 295.271 50.125C293.937 51.375 292.007 52 289.48 52H285.438V37.7227H289.92C292.251 37.7227 294.061 38.3379 295.35 39.5684C296.639 40.7988 297.283 42.5176 297.283 44.7246ZM294.139 44.8027C294.139 41.7363 292.785 40.2031 290.076 40.2031H288.465V49.5H289.764C292.68 49.5 294.139 47.9342 294.139 44.8027ZM302.381 46.5215C302.381 47.6022 302.557 48.4193 302.908 48.9727C303.266 49.526 303.846 49.8027 304.646 49.8027C305.441 49.8027 306.01 49.5293 306.355 48.9824C306.707 48.429 306.883 47.6087 306.883 46.5215C306.883 45.4408 306.707 44.6302 306.355 44.0898C306.004 43.5495 305.428 43.2793 304.627 43.2793C303.833 43.2793 303.26 43.5495 302.908 44.0898C302.557 44.6237 302.381 45.4342 302.381 46.5215ZM309.93 46.5215C309.93 48.2988 309.461 49.6888 308.523 50.6914C307.586 51.694 306.281 52.1953 304.607 52.1953C303.559 52.1953 302.635 51.9674 301.834 51.5117C301.033 51.0495 300.418 50.3887 299.988 49.5293C299.559 48.6699 299.344 47.6673 299.344 46.5215C299.344 44.7376 299.809 43.3509 300.74 42.3613C301.671 41.3717 302.98 40.877 304.666 40.877C305.714 40.877 306.639 41.1048 307.439 41.5605C308.24 42.0163 308.855 42.6706 309.285 43.5234C309.715 44.3763 309.93 45.3757 309.93 46.5215ZM315.369 52H312.391V36.8047H315.369V52ZM320.877 46.5215C320.877 47.6022 321.053 48.4193 321.404 48.9727C321.762 49.526 322.342 49.8027 323.143 49.8027C323.937 49.8027 324.507 49.5293 324.852 48.9824C325.203 48.429 325.379 47.6087 325.379 46.5215C325.379 45.4408 325.203 44.6302 324.852 44.0898C324.5 43.5495 323.924 43.2793 323.123 43.2793C322.329 43.2793 321.756 43.5495 321.404 44.0898C321.053 44.6237 320.877 45.4342 320.877 46.5215ZM328.426 46.5215C328.426 48.2988 327.957 49.6888 327.02 50.6914C326.082 51.694 324.777 52.1953 323.104 52.1953C322.055 52.1953 321.131 51.9674 320.33 51.5117C319.529 51.0495 318.914 50.3887 318.484 49.5293C318.055 48.6699 317.84 47.6673 317.84 46.5215C317.84 44.7376 318.305 43.3509 319.236 42.3613C320.167 41.3717 321.476 40.877 323.162 40.877C324.21 40.877 325.135 41.1048 325.936 41.5605C326.736 42.0163 327.352 42.6706 327.781 43.5234C328.211 44.3763 328.426 45.3757 328.426 46.5215ZM336.98 40.877C337.384 40.877 337.719 40.9062 337.986 40.9648L337.762 43.7578C337.521 43.6927 337.228 43.6602 336.883 43.6602C335.932 43.6602 335.19 43.9043 334.656 44.3926C334.129 44.8809 333.865 45.5645 333.865 46.4434V52H330.887V41.082H333.143L333.582 42.918H333.729C334.067 42.306 334.523 41.8145 335.096 41.4434C335.675 41.0658 336.303 40.877 336.98 40.877ZM353.826 48.0352C353.826 49.3242 353.361 50.3398 352.43 51.082C351.505 51.8242 350.216 52.1953 348.562 52.1953C347.039 52.1953 345.691 51.9089 344.52 51.3359V48.5234C345.483 48.9531 346.297 49.2559 346.961 49.4316C347.632 49.6074 348.243 49.6953 348.797 49.6953C349.461 49.6953 349.969 49.5684 350.32 49.3145C350.678 49.0605 350.857 48.6829 350.857 48.1816C350.857 47.9017 350.779 47.6543 350.623 47.4395C350.467 47.2181 350.236 47.0065 349.93 46.8047C349.63 46.6029 349.015 46.2806 348.084 45.8379C347.212 45.4277 346.557 45.0339 346.121 44.6562C345.685 44.2786 345.337 43.8392 345.076 43.3379C344.816 42.8366 344.686 42.2507 344.686 41.5801C344.686 40.3171 345.112 39.3242 345.965 38.6016C346.824 37.8789 348.009 37.5176 349.52 37.5176C350.262 37.5176 350.968 37.6055 351.639 37.7812C352.316 37.957 353.022 38.2044 353.758 38.5234L352.781 40.877C352.02 40.5645 351.388 40.3464 350.887 40.2227C350.392 40.099 349.904 40.0371 349.422 40.0371C348.849 40.0371 348.41 40.1706 348.104 40.4375C347.798 40.7044 347.645 41.0527 347.645 41.4824C347.645 41.7493 347.706 41.9837 347.83 42.1855C347.954 42.3809 348.149 42.5729 348.416 42.7617C348.689 42.944 349.331 43.276 350.34 43.7578C351.674 44.3958 352.589 45.0371 353.084 45.6816C353.579 46.3197 353.826 47.1042 353.826 48.0352ZM356.053 38.2598C356.053 37.2897 356.593 36.8047 357.674 36.8047C358.755 36.8047 359.295 37.2897 359.295 38.2598C359.295 38.722 359.158 39.0833 358.885 39.3438C358.618 39.5977 358.214 39.7246 357.674 39.7246C356.593 39.7246 356.053 39.2363 356.053 38.2598ZM359.158 52H356.18V41.082H359.158V52ZM366.893 49.8223C367.413 49.8223 368.038 49.7083 368.768 49.4805V51.6973C368.025 52.0293 367.114 52.1953 366.033 52.1953C364.842 52.1953 363.973 51.8958 363.426 51.2969C362.885 50.6914 362.615 49.7865 362.615 48.582V43.3184H361.189V42.0586L362.83 41.0625L363.689 38.7578H365.594V41.082H368.65V43.3184H365.594V48.582C365.594 49.0052 365.711 49.3177 365.945 49.5195C366.186 49.7214 366.502 49.8223 366.893 49.8223Z" fill="#231656"/>
<path d="M157.938 84L156.16 79.459H150.438L148.68 84H147L152.645 69.6641H154.041L159.656 84H157.938ZM155.643 77.9648L153.982 73.541C153.768 72.9811 153.546 72.2943 153.318 71.4805C153.175 72.1055 152.97 72.7923 152.703 73.541L151.023 77.9648H155.643ZM175.018 84V77.0371C175.018 76.1842 174.835 75.5462 174.471 75.123C174.106 74.6934 173.54 74.4785 172.771 74.4785C171.762 74.4785 171.017 74.7682 170.535 75.3477C170.053 75.9271 169.812 76.819 169.812 78.0234V84H168.191V77.0371C168.191 76.1842 168.009 75.5462 167.645 75.123C167.28 74.6934 166.71 74.4785 165.936 74.4785C164.92 74.4785 164.174 74.7845 163.699 75.3965C163.23 76.002 162.996 76.998 162.996 78.3848V84H161.375V73.2969H162.693L162.957 74.7617H163.035C163.341 74.2409 163.771 73.834 164.324 73.541C164.884 73.248 165.509 73.1016 166.199 73.1016C167.872 73.1016 168.966 73.707 169.48 74.918H169.559C169.878 74.3581 170.34 73.9154 170.945 73.5898C171.551 73.2643 172.241 73.1016 173.016 73.1016C174.227 73.1016 175.132 73.4141 175.73 74.0391C176.336 74.6576 176.639 75.6504 176.639 77.0176V84H175.018ZM184.51 84.1953C182.928 84.1953 181.678 83.7135 180.76 82.75C179.848 81.7865 179.393 80.4486 179.393 78.7363C179.393 77.0111 179.816 75.6406 180.662 74.625C181.515 73.6094 182.658 73.1016 184.09 73.1016C185.431 73.1016 186.492 73.5443 187.273 74.4297C188.055 75.3086 188.445 76.4707 188.445 77.916V78.9414H181.072C181.105 80.1979 181.421 81.1517 182.02 81.8027C182.625 82.4538 183.475 82.7793 184.568 82.7793C185.721 82.7793 186.86 82.5384 187.986 82.0566V83.502C187.413 83.7493 186.87 83.9251 186.355 84.0293C185.848 84.14 185.232 84.1953 184.51 84.1953ZM184.07 74.459C183.211 74.459 182.524 74.7389 182.01 75.2988C181.502 75.8587 181.202 76.6335 181.111 77.623H186.707C186.707 76.6009 186.479 75.8197 186.023 75.2793C185.568 74.7324 184.917 74.459 184.07 74.459ZM194.676 82.8574C194.962 82.8574 195.239 82.8379 195.506 82.7988C195.773 82.7533 195.984 82.7077 196.141 82.6621V83.9023C195.965 83.987 195.704 84.0553 195.359 84.1074C195.021 84.166 194.715 84.1953 194.441 84.1953C192.371 84.1953 191.336 83.1048 191.336 80.9238V74.5566H189.803V73.7754L191.336 73.1016L192.02 70.8164H192.957V73.2969H196.062V74.5566H192.957V80.8555C192.957 81.5 193.11 81.9948 193.416 82.3398C193.722 82.6849 194.142 82.8574 194.676 82.8574ZM199.988 81.6758L200.135 81.9004C199.965 82.5514 199.721 83.3066 199.402 84.166C199.083 85.0319 198.751 85.8359 198.406 86.5781H197.186C197.361 85.901 197.553 85.0645 197.762 84.0684C197.977 83.0723 198.126 82.2747 198.211 81.6758H199.988ZM214.744 71.002C213.175 71.002 211.935 71.526 211.023 72.5742C210.118 73.6159 209.666 75.0449 209.666 76.8613C209.666 78.7298 210.102 80.1751 210.975 81.1973C211.854 82.2129 213.104 82.7207 214.725 82.7207C215.721 82.7207 216.857 82.5417 218.133 82.1836V83.6387C217.143 84.0098 215.923 84.1953 214.471 84.1953C212.368 84.1953 210.743 83.5573 209.598 82.2812C208.458 81.0052 207.889 79.1921 207.889 76.8418C207.889 75.3704 208.162 74.0814 208.709 72.9746C209.262 71.8678 210.057 71.015 211.092 70.416C212.133 69.8171 213.357 69.5176 214.764 69.5176C216.261 69.5176 217.57 69.791 218.689 70.3379L217.986 71.7637C216.906 71.2559 215.825 71.002 214.744 71.002ZM230.242 78.6387C230.242 80.3835 229.803 81.7474 228.924 82.7305C228.045 83.707 226.831 84.1953 225.281 84.1953C224.324 84.1953 223.475 83.9707 222.732 83.5215C221.99 83.0723 221.417 82.4277 221.014 81.5879C220.61 80.748 220.408 79.765 220.408 78.6387C220.408 76.8939 220.844 75.5365 221.717 74.5664C222.589 73.5898 223.8 73.1016 225.35 73.1016C226.847 73.1016 228.035 73.5996 228.914 74.5957C229.799 75.5918 230.242 76.9395 230.242 78.6387ZM222.088 78.6387C222.088 80.0059 222.361 81.0475 222.908 81.7637C223.455 82.4798 224.259 82.8379 225.32 82.8379C226.382 82.8379 227.186 82.4831 227.732 81.7734C228.286 81.0573 228.562 80.0124 228.562 78.6387C228.562 77.278 228.286 76.2461 227.732 75.543C227.186 74.8333 226.375 74.4785 225.301 74.4785C224.24 74.4785 223.439 74.8268 222.898 75.5234C222.358 76.2201 222.088 77.2585 222.088 78.6387ZM240.418 84V77.0762C240.418 76.2038 240.219 75.5527 239.822 75.123C239.425 74.6934 238.803 74.4785 237.957 74.4785C236.837 74.4785 236.017 74.7812 235.496 75.3867C234.975 75.9922 234.715 76.9915 234.715 78.3848V84H233.094V73.2969H234.412L234.676 74.7617H234.754C235.086 74.2344 235.551 73.8275 236.15 73.541C236.749 73.248 237.417 73.1016 238.152 73.1016C239.441 73.1016 240.411 73.4141 241.062 74.0391C241.714 74.6576 242.039 75.6504 242.039 77.0176V84H240.418ZM252.283 81.0801C252.283 82.0762 251.912 82.8444 251.17 83.3848C250.428 83.9251 249.386 84.1953 248.045 84.1953C246.626 84.1953 245.519 83.9707 244.725 83.5215V82.0176C245.239 82.278 245.789 82.4831 246.375 82.6328C246.967 82.7826 247.537 82.8574 248.084 82.8574C248.93 82.8574 249.581 82.724 250.037 82.457C250.493 82.1836 250.721 81.7702 250.721 81.2168C250.721 80.8001 250.538 80.4453 250.174 80.1523C249.816 79.8529 249.113 79.5013 248.064 79.0977C247.068 78.7266 246.359 78.4043 245.936 78.1309C245.519 77.8509 245.206 77.5352 244.998 77.1836C244.796 76.832 244.695 76.4121 244.695 75.9238C244.695 75.0514 245.05 74.3646 245.76 73.8633C246.469 73.3555 247.443 73.1016 248.68 73.1016C249.832 73.1016 250.958 73.3359 252.059 73.8047L251.482 75.123C250.408 74.6803 249.435 74.459 248.562 74.459C247.794 74.459 247.215 74.5794 246.824 74.8203C246.434 75.0612 246.238 75.3932 246.238 75.8164C246.238 76.1029 246.31 76.347 246.453 76.5488C246.603 76.7507 246.84 76.9427 247.166 77.125C247.492 77.3073 248.117 77.571 249.041 77.916C250.311 78.3783 251.167 78.8438 251.609 79.3125C252.059 79.7812 252.283 80.3704 252.283 81.0801ZM259.451 84.1953C257.869 84.1953 256.619 83.7135 255.701 82.75C254.79 81.7865 254.334 80.4486 254.334 78.7363C254.334 77.0111 254.757 75.6406 255.604 74.625C256.456 73.6094 257.599 73.1016 259.031 73.1016C260.372 73.1016 261.434 73.5443 262.215 74.4297C262.996 75.3086 263.387 76.4707 263.387 77.916V78.9414H256.014C256.046 80.1979 256.362 81.1517 256.961 81.8027C257.566 82.4538 258.416 82.7793 259.51 82.7793C260.662 82.7793 261.801 82.5384 262.928 82.0566V83.502C262.355 83.7493 261.811 83.9251 261.297 84.0293C260.789 84.14 260.174 84.1953 259.451 84.1953ZM259.012 74.459C258.152 74.459 257.465 74.7389 256.951 75.2988C256.443 75.8587 256.144 76.6335 256.053 77.623H261.648C261.648 76.6009 261.421 75.8197 260.965 75.2793C260.509 74.7324 259.858 74.459 259.012 74.459ZM270.438 84.1953C268.888 84.1953 267.687 83.7201 266.834 82.7695C265.988 81.8125 265.564 80.4616 265.564 78.7168C265.564 76.9264 265.994 75.543 266.854 74.5664C267.719 73.5898 268.95 73.1016 270.545 73.1016C271.059 73.1016 271.574 73.1569 272.088 73.2676C272.602 73.3783 273.006 73.5085 273.299 73.6582L272.801 75.0352C272.443 74.8919 272.052 74.7747 271.629 74.6836C271.206 74.5859 270.831 74.5371 270.506 74.5371C268.331 74.5371 267.244 75.9238 267.244 78.6973C267.244 80.0124 267.508 81.0215 268.035 81.7246C268.569 82.4277 269.357 82.7793 270.398 82.7793C271.29 82.7793 272.205 82.5872 273.143 82.2031V83.6387C272.426 84.0098 271.525 84.1953 270.438 84.1953ZM279.148 82.8574C279.435 82.8574 279.712 82.8379 279.979 82.7988C280.245 82.7533 280.457 82.7077 280.613 82.6621V83.9023C280.438 83.987 280.177 84.0553 279.832 84.1074C279.493 84.166 279.188 84.1953 278.914 84.1953C276.844 84.1953 275.809 83.1048 275.809 80.9238V74.5566H274.275V73.7754L275.809 73.1016L276.492 70.8164H277.43V73.2969H280.535V74.5566H277.43V80.8555C277.43 81.5 277.583 81.9948 277.889 82.3398C278.195 82.6849 278.615 82.8574 279.148 82.8574ZM287.283 84.1953C285.701 84.1953 284.451 83.7135 283.533 82.75C282.622 81.7865 282.166 80.4486 282.166 78.7363C282.166 77.0111 282.589 75.6406 283.436 74.625C284.288 73.6094 285.431 73.1016 286.863 73.1016C288.204 73.1016 289.266 73.5443 290.047 74.4297C290.828 75.3086 291.219 76.4707 291.219 77.916V78.9414H283.846C283.878 80.1979 284.194 81.1517 284.793 81.8027C285.398 82.4538 286.248 82.7793 287.342 82.7793C288.494 82.7793 289.633 82.5384 290.76 82.0566V83.502C290.187 83.7493 289.643 83.9251 289.129 84.0293C288.621 84.14 288.006 84.1953 287.283 84.1953ZM286.844 74.459C285.984 74.459 285.298 74.7389 284.783 75.2988C284.275 75.8587 283.976 76.6335 283.885 77.623H289.48C289.48 76.6009 289.253 75.8197 288.797 75.2793C288.341 74.7324 287.69 74.459 286.844 74.459ZM297.449 82.8574C297.736 82.8574 298.012 82.8379 298.279 82.7988C298.546 82.7533 298.758 82.7077 298.914 82.6621V83.9023C298.738 83.987 298.478 84.0553 298.133 84.1074C297.794 84.166 297.488 84.1953 297.215 84.1953C295.145 84.1953 294.109 83.1048 294.109 80.9238V74.5566H292.576V73.7754L294.109 73.1016L294.793 70.8164H295.73V73.2969H298.836V74.5566H295.73V80.8555C295.73 81.5 295.883 81.9948 296.189 82.3398C296.495 82.6849 296.915 82.8574 297.449 82.8574ZM302.586 73.2969V80.2402C302.586 81.1126 302.785 81.7637 303.182 82.1934C303.579 82.623 304.201 82.8379 305.047 82.8379C306.167 82.8379 306.984 82.5319 307.498 81.9199C308.019 81.3079 308.279 80.3086 308.279 78.9219V73.2969H309.9V84H308.562L308.328 82.5645H308.24C307.908 83.0918 307.446 83.4954 306.854 83.7754C306.268 84.0553 305.597 84.1953 304.842 84.1953C303.54 84.1953 302.563 83.8861 301.912 83.2676C301.268 82.6491 300.945 81.6595 300.945 80.2988V73.2969H302.586ZM318.23 73.1016C318.706 73.1016 319.132 73.1406 319.51 73.2188L319.285 74.7227C318.842 74.625 318.452 74.5762 318.113 74.5762C317.247 74.5762 316.505 74.9277 315.887 75.6309C315.275 76.334 314.969 77.2096 314.969 78.2578V84H313.348V73.2969H314.686L314.871 75.2793H314.949C315.346 74.5827 315.825 74.0456 316.385 73.668C316.945 73.2904 317.56 73.1016 318.23 73.1016Z" fill="#7D5FFF"/>
<path d="M350.405 73L356 79L350.405 85M355.551 79C353.336 79 349.55 79 349.55 79H334" stroke="#7D5FFF" stroke-width="1.5" stroke-miterlimit="10" stroke-linecap="square"/>
<g filter="url(#filter0_d_3_1949)">
<circle cx="76" cy="60" r="50" fill="#FFC173"/>
</g>
<path d="M87.5681 56.0562C89.2479 57.2524 89.2479 59.7476 87.5681 60.9438L73.2401 71.1462C71.2541 72.5604 68.5 71.1405 68.5 68.7024L68.5 48.2976C68.5 45.8595 71.2541 44.4396 73.2401 45.8538L87.5681 56.0562Z" fill="white"/>
<defs>
<filter id="filter0_d_3_1949" x="0" y="0" width="158" height="158" filterUnits="userSpaceOnUse" color-interpolation-filters="sRGB">
<feFlood flood-opacity="0" result="BackgroundImageFix"/>
<feColorMatrix in="SourceAlpha" type="matrix" values="0 0 0 0 0 0 0 0 0 0 0 0 0 0 0 0 0 0 127 0" result="hardAlpha"/>
<feOffset dx="3" dy="19"/>
<feGaussianBlur stdDeviation="14.5"/>
<feComposite in2="hardAlpha" operator="out"/>
<feColorMatrix type="matrix" values="0 0 0 0 0.725 0 0 0 0 0.725 0 0 0 0 0.725 0 0 0 0.25 0"/>
<feBlend mode="normal" in2="BackgroundImageFix" result="effect1_dropShadow_3_1949"/>
<feBlend mode="normal" in="SourceGraphic" in2="effect1_dropShadow_3_1949" result="shape"/>
</filter>
</defs>
</svg>
