<svg width="23" height="23" viewBox="0 0 23 23" fill="none" xmlns="http://www.w3.org/2000/svg">
<path d="M15.766 2.69365C16.9948 2.69718 18.1723 3.16847 19.0411 4.00459C19.91 4.8407 20.3998 5.97371 20.4035 7.15615V16.0802C20.3998 17.2626 19.91 18.3956 19.0411 19.2318C18.1723 20.0679 16.9948 20.5392 15.766 20.5427H6.49213C5.26333 20.5392 4.08591 20.0679 3.21701 19.2318C2.34812 18.3956 1.85835 17.2626 1.85468 16.0802V7.15615C1.85835 5.97371 2.34812 4.8407 3.21701 4.00459C4.08591 3.16847 5.26333 2.69718 6.49213 2.69365H15.766ZM15.766 0.908936H6.49213C2.92138 0.908936 0 3.72011 0 7.15615V16.0802C0 19.5162 2.92138 22.3274 6.49213 22.3274H15.766C19.3368 22.3274 22.2582 19.5162 22.2582 16.0802V7.15615C22.2582 3.72011 19.3368 0.908936 15.766 0.908936Z" fill="#231656"/>
<path d="M17.1571 7.15656C16.8819 7.15656 16.613 7.07805 16.3842 6.93095C16.1554 6.78386 15.9771 6.57479 15.8718 6.33018C15.7665 6.08558 15.739 5.81642 15.7927 5.55674C15.8464 5.29707 15.9788 5.05855 16.1734 4.87133C16.368 4.68412 16.6158 4.55662 16.8857 4.50497C17.1555 4.45332 17.4352 4.47983 17.6894 4.58115C17.9436 4.68247 18.1609 4.85405 18.3138 5.07419C18.4666 5.29433 18.5482 5.55314 18.5482 5.8179C18.5486 5.9938 18.5129 6.16805 18.4431 6.33063C18.3733 6.49321 18.2709 6.64094 18.1416 6.76532C18.0124 6.8897 17.8589 6.98829 17.6899 7.05543C17.5209 7.12257 17.3399 7.15694 17.1571 7.15656ZM11.129 8.04868C11.8627 8.04868 12.58 8.25805 13.1901 8.65031C13.8002 9.04258 14.2757 9.60012 14.5565 10.2524C14.8372 10.9048 14.9107 11.6225 14.7676 12.315C14.6244 13.0075 14.2711 13.6436 13.7523 14.1429C13.2334 14.6421 12.5724 14.9821 11.8528 15.1199C11.1331 15.2576 10.3872 15.1869 9.70929 14.9167C9.03141 14.6465 8.452 14.189 8.04436 13.6019C7.63672 13.0148 7.41914 12.3246 7.41914 11.6186C7.42019 10.6721 7.81138 9.76466 8.50689 9.09539C9.2024 8.42613 10.1454 8.04969 11.129 8.04868ZM11.129 6.26396C10.0284 6.26396 8.95259 6.578 8.0375 7.16638C7.12242 7.75475 6.4092 8.59103 5.98803 9.56946C5.56686 10.5479 5.45667 11.6245 5.67138 12.6632C5.88609 13.7019 6.41606 14.656 7.19427 15.4049C7.97249 16.1537 8.96399 16.6637 10.0434 16.8703C11.1228 17.0769 12.2417 16.9709 13.2585 16.5656C14.2752 16.1603 15.1443 15.474 15.7557 14.5934C16.3672 13.7129 16.6935 12.6776 16.6935 11.6186C16.6935 10.1984 16.1073 8.83648 15.0637 7.83229C14.0202 6.82811 12.6048 6.26396 11.129 6.26396Z" fill="#231656"/>
</svg>
