<svg width="130" height="90" viewBox="0 0 130 90" fill="none" xmlns="http://www.w3.org/2000/svg">
<path d="M43.2539 68C58.994 68 71.7539 55.2401 71.7539 39.5C71.7539 23.7599 58.994 11 43.2539 11C27.5138 11 14.7539 23.7599 14.7539 39.5C14.7539 55.2401 27.5138 68 43.2539 68Z" stroke="#DEDEDE" stroke-width="5" stroke-linecap="round" stroke-linejoin="round"/>
<path d="M2.5 86.9995C7.49346 81.0481 13.7298 76.2624 20.7707 72.979C27.8116 69.6956 35.4862 67.9941 43.255 67.9941C51.0238 67.9941 58.6984 69.6956 65.7393 72.979C72.7802 76.2624 79.0165 81.0481 84.01 86.9995" stroke="#DEDEDE" stroke-width="5" stroke-linecap="round" stroke-linejoin="round"/>
<circle cx="107" cy="22.5" r="22.5" fill="#E5DFF4"/>
<path d="M96.5 22.4004H119.3" stroke="#7544FF" stroke-width="3" stroke-linecap="round" stroke-linejoin="round"/>
<path d="M107.9 11V33.8" stroke="#7544FF" stroke-width="3" stroke-linecap="round" stroke-linejoin="round"/>
</svg>
