<svg width="22" height="18" viewBox="0 0 22 18" fill="none" xmlns="http://www.w3.org/2000/svg">
<path d="M21.7294 2.06972C20.924 2.41943 20.0718 2.64982 19.1998 2.75362C20.1162 2.2174 20.8054 1.36551 21.138 0.357732C20.2716 0.863994 19.3253 1.21921 18.3396 1.40817C17.9246 0.97348 17.4254 0.627674 16.8724 0.391768C16.3194 0.155863 15.7242 0.0347858 15.123 0.0358962C12.6887 0.0358962 10.7187 1.97585 10.7187 4.36727C10.717 4.69991 10.7551 5.03155 10.8323 5.35513C9.08679 5.27335 7.37753 4.82838 5.81393 4.04868C4.25032 3.26897 2.8668 2.17171 1.75188 0.827076C1.36074 1.486 1.15388 2.23781 1.15293 3.00394C1.15293 4.50584 1.93707 5.83341 3.12111 6.61118C2.4196 6.59454 1.73246 6.409 1.11804 6.07032V6.12395C1.11804 8.22483 2.6389 9.97257 4.65182 10.3704C4.27329 10.4712 3.88323 10.5223 3.49148 10.5224C3.21351 10.5229 2.93618 10.4959 2.66351 10.4419C3.2231 12.1628 4.85177 13.4144 6.78103 13.4502C5.21336 14.6575 3.28868 15.31 1.30949 15.3052C0.958176 15.3047 0.60719 15.2838 0.258301 15.2426C2.27174 16.5274 4.6122 17.207 7.00111 17.2005C15.1136 17.2005 19.5456 10.5984 19.5456 4.87237C19.5456 4.68463 19.5407 4.4969 19.5317 4.31363C20.3919 3.70217 21.1361 2.9423 21.7294 2.06972Z" fill="#231656"/>
</svg>
