<svg width="145" height="146" viewBox="0 0 145 146" fill="none" xmlns="http://www.w3.org/2000/svg">
<path d="M0 15.8814C0 7.59709 6.71573 0.881348 15 0.881348H129.237C137.521 0.881348 144.237 7.59708 144.237 15.8813V130.118C144.237 138.403 137.521 145.118 129.237 145.118H15C6.71575 145.118 0 138.403 0 130.118V15.8814Z" fill="#231656"/>
<path d="M44.7398 80.9795L29.5398 44.4995H16.3398L44.7398 103.78L73.1398 44.4995H59.8598L44.7398 80.9795ZM69.5273 95.7795C69.5273 97.4862 70.1406 98.9795 71.3673 100.26C72.6473 101.54 74.2206 102.18 76.0873 102.18C78.0073 102.18 79.5806 101.54 80.8073 100.26C82.0339 98.9795 82.6473 97.4862 82.6473 95.7795C82.6473 93.9662 82.0339 92.4462 80.8073 91.2195C79.5806 89.9395 78.0073 89.2995 76.0873 89.2995C74.2206 89.2995 72.6473 89.9395 71.3673 91.2195C70.1406 92.4462 69.5273 93.9662 69.5273 95.7795ZM94.3616 59.0595L107.802 55.5395V100.5H118.922V43.5395L94.3616 48.7395V59.0595Z" fill="white"/>
</svg>
