<svg width="348" height="148" viewBox="0 0 348 148" fill="none" xmlns="http://www.w3.org/2000/svg">
<rect y="0.328125" width="348" height="147" rx="15" fill="#FFC173"/>
<mask id="mask0_3_1395" style="mask-type:alpha" maskUnits="userSpaceOnUse" x="-1" y="0" width="350" height="148">
<rect x="-0.115234" y="0.0605469" width="348.23" height="147.54" rx="15" fill="white"/>
</mask>
<g mask="url(#mask0_3_1395)">
<path d="M45 73.6039L51.55 73.6039C53.9833 73.6039 56.1167 73.2706 57.95 72.6039C59.8167 71.9039 61.2833 70.9039 62.35 69.6039C63.45 68.3039 64 66.7372 64 64.9039C64 62.9039 63.45 61.2539 62.35 59.9539C61.2833 58.6206 59.8167 57.6372 57.95 57.0039C56.1167 56.3372 53.9833 56.0039 51.55 56.0039L38.7 56.0039L38.7 91.0039L52.4 91.0039C55.1667 91.0039 57.5667 90.6706 59.6 90.0039C61.6333 89.3039 63.2 88.2372 64.3 86.8039C65.4333 85.3706 66 83.4872 66 81.1539C66 79.3872 65.6 77.8872 64.8 76.6539C64.0333 75.3872 63 74.3539 61.7 73.5539C60.4 72.7206 58.95 72.1206 57.35 71.7539C55.75 71.3872 54.1 71.2039 52.4 71.2039L45 71.2039L45 75.8039L51.45 75.8039C52.2833 75.8039 53.0333 75.8872 53.7 76.0539C54.4 76.1872 55.0167 76.4206 55.55 76.7539C56.0833 77.0872 56.5 77.5206 56.8 78.0539C57.1 78.5872 57.25 79.2206 57.25 79.9539C57.25 81.0872 56.9833 81.9872 56.45 82.6539C55.95 83.2872 55.2667 83.7539 54.4 84.0539C53.5333 84.3206 52.55 84.4539 51.45 84.4539L47.15 84.4539L47.15 62.5539L50.65 62.5539C52.0833 62.5539 53.2 62.8539 54 63.4539C54.8333 64.0539 55.25 64.9539 55.25 66.1539C55.25 66.9539 55.0667 67.6372 54.7 68.2039C54.3333 68.7372 53.8 69.1539 53.1 69.4539C52.4333 69.7539 51.6167 69.9039 50.65 69.9039L45 69.9039L45 73.6039ZM77.0031 83.8039C77.0031 83.2372 77.1365 82.7706 77.4031 82.4039C77.6698 82.0039 78.0698 81.7039 78.6031 81.5039C79.1365 81.3039 79.8531 81.2039 80.7531 81.2039C81.9198 81.2039 83.0198 81.3706 84.0531 81.7039C85.1198 82.0039 86.0531 82.4539 86.8531 83.0539L86.8531 79.7039C86.4531 79.2706 85.8531 78.8539 85.0531 78.4539C84.2531 78.0539 83.2865 77.7206 82.1531 77.4539C81.0531 77.1872 79.8031 77.0539 78.4031 77.0539C75.5365 77.0539 73.3198 77.7039 71.7531 79.0039C70.1865 80.2706 69.4031 82.0039 69.4031 84.2039C69.4031 85.7706 69.7698 87.1039 70.5031 88.2039C71.2698 89.3039 72.2698 90.1372 73.5031 90.7039C74.7698 91.2372 76.1365 91.5039 77.6031 91.5039C79.0698 91.5039 80.4365 91.2539 81.7031 90.7539C82.9698 90.2206 84.0031 89.4539 84.8031 88.4539C85.6031 87.4206 86.0031 86.1706 86.0031 84.7039L85.2031 81.7039C85.2031 82.7706 84.9698 83.6706 84.5031 84.4039C84.0365 85.1372 83.4365 85.6872 82.7031 86.0539C81.9698 86.4206 81.1698 86.6039 80.3031 86.6039C79.7031 86.6039 79.1531 86.5039 78.6531 86.3039C78.1531 86.0706 77.7531 85.7539 77.4531 85.3539C77.1531 84.9206 77.0031 84.4039 77.0031 83.8039ZM73.6531 75.0539C73.9865 74.8539 74.5198 74.6039 75.2531 74.3039C75.9865 73.9706 76.8365 73.6872 77.8031 73.4539C78.8031 73.2206 79.8198 73.1039 80.8531 73.1039C81.5531 73.1039 82.1698 73.1706 82.7031 73.3039C83.2698 73.4372 83.7365 73.6539 84.1031 73.9539C84.4698 74.2539 84.7365 74.6206 84.9031 75.0539C85.1031 75.4539 85.2031 75.9372 85.2031 76.5039L85.2031 91.0039L92.4531 91.0039L92.4531 74.8039C92.4531 73.2039 91.9865 71.8539 91.0531 70.7539C90.1198 69.6539 88.8531 68.8206 87.2531 68.2539C85.6531 67.6539 83.8365 67.3539 81.8031 67.3539C79.6365 67.3539 77.6365 67.6372 75.8031 68.2039C73.9698 68.7706 72.4031 69.3706 71.1031 70.0039L73.6531 75.0539ZM99.3563 82.6539L96.2063 87.6539C97.2396 88.4539 98.3563 89.1872 99.5563 89.8539C100.756 90.4872 102.056 90.9872 103.456 91.3539C104.89 91.7539 106.423 91.9539 108.056 91.9539C110.823 91.9539 112.956 91.3372 114.456 90.1039C115.99 88.8372 116.756 86.9706 116.756 84.5039C116.756 83.0706 116.44 81.9206 115.806 81.0539C115.206 80.1872 114.39 79.4706 113.356 78.9039C112.356 78.3372 111.256 77.8372 110.056 77.4039C108.923 76.9706 107.956 76.6206 107.156 76.3539C106.39 76.0539 105.79 75.7372 105.356 75.4039C104.956 75.0706 104.756 74.6539 104.756 74.1539C104.756 73.7206 104.923 73.3706 105.256 73.1039C105.623 72.8372 106.156 72.7039 106.856 72.7039C107.89 72.7039 109.023 73.0039 110.256 73.6039C111.49 74.1706 112.59 74.9039 113.556 75.8039L116.256 70.9039C115.356 70.2372 114.39 69.6539 113.356 69.1539C112.356 68.6539 111.273 68.2539 110.106 67.9539C108.973 67.6539 107.74 67.5039 106.406 67.5039C104.74 67.5039 103.256 67.7539 101.956 68.2539C100.69 68.7539 99.6729 69.4872 98.9063 70.4539C98.1729 71.4206 97.8063 72.6039 97.8063 74.0039C97.8063 75.4706 98.1229 76.6706 98.7563 77.6039C99.3896 78.5372 100.19 79.2872 101.156 79.8539C102.156 80.3872 103.206 80.8539 104.306 81.2539C105.54 81.6206 106.506 81.9706 107.206 82.3039C107.94 82.6372 108.456 82.9872 108.756 83.3539C109.056 83.6872 109.206 84.1039 109.206 84.6039C109.206 85.1372 109.023 85.5706 108.656 85.9039C108.29 86.2372 107.723 86.4039 106.956 86.4039C106.423 86.4039 105.79 86.3039 105.056 86.1039C104.323 85.8706 103.473 85.4872 102.506 84.9539C101.573 84.3872 100.523 83.6206 99.3563 82.6539ZM120.459 59.3539C120.459 60.5539 120.892 61.5372 121.759 62.3039C122.626 63.0706 123.659 63.4539 124.859 63.4539C126.092 63.4539 127.126 63.0706 127.959 62.3039C128.826 61.5372 129.259 60.5539 129.259 59.3539C129.259 58.1539 128.826 57.1872 127.959 56.4539C127.126 55.6872 126.092 55.3039 124.859 55.3039C123.659 55.3039 122.626 55.6872 121.759 56.4539C120.892 57.1872 120.459 58.1539 120.459 59.3539ZM121.209 68.0039L121.209 91.0039L128.509 91.0039L128.509 68.0039L121.209 68.0039ZM141.077 79.5039C141.077 78.3706 141.344 77.3539 141.877 76.4539C142.411 75.5539 143.144 74.8372 144.077 74.3039C145.044 73.7706 146.077 73.5039 147.177 73.5039C148.011 73.5039 148.861 73.6372 149.727 73.9039C150.594 74.1706 151.394 74.5539 152.127 75.0539C152.894 75.5539 153.511 76.1706 153.977 76.9039L153.977 69.5039C153.177 68.9372 152.177 68.4706 150.977 68.1039C149.777 67.7039 148.311 67.5039 146.577 67.5039C144.044 67.5039 141.761 68.0039 139.727 69.0039C137.727 70.0039 136.144 71.4039 134.977 73.2039C133.844 74.9706 133.277 77.0706 133.277 79.5039C133.277 81.9039 133.844 84.0039 134.977 85.8039C136.144 87.6039 137.727 89.0039 139.727 90.0039C141.761 91.0039 144.044 91.5039 146.577 91.5039C148.311 91.5039 149.777 91.3206 150.977 90.9539C152.177 90.5539 153.177 90.0372 153.977 89.4039L153.977 82.0539C153.511 82.7872 152.911 83.4039 152.177 83.9039C151.477 84.4039 150.694 84.8039 149.827 85.1039C148.994 85.3706 148.111 85.5039 147.177 85.5039C146.077 85.5039 145.044 85.2539 144.077 84.7539C143.144 84.2539 142.411 83.5706 141.877 82.7039C141.344 81.8039 141.077 80.7372 141.077 79.5039Z" fill="#3D3269"/>
<path d="M295.764 102.002C294.838 101.989 293.949 101.629 293.274 100.992L268.803 76.4035C268.246 75.721 267.961 74.8545 268.004 73.9727C268.047 73.0908 268.415 72.2566 269.036 71.6323C269.658 71.0079 270.488 70.6382 271.365 70.5948C272.243 70.5515 273.105 70.8378 273.784 71.3979L295.764 93.5277L342.215 46.8093C342.894 46.2492 343.756 45.9629 344.634 46.0062C345.511 46.0495 346.341 46.4193 346.963 47.0437C347.584 47.668 347.952 48.5022 347.995 49.3841C348.038 50.2659 347.753 51.1324 347.196 51.8149L298.255 100.992C297.579 101.629 296.691 101.989 295.764 102.002Z" fill="#EEAA55"/>
</g>
</svg>
